PathFileType	4	(X/Y/Z)	C:\Users\Basilio\Documents\Thesis Gigler\squatting_fais\c3dfiles\058\SJ_pre2\markers_experimental.trc
DataRate	CameraRate	NumFrames	NumMarkers	Units	OrigDataRate	OrigDataStartFrame	OrigNumFrames
200.000000	200.000000	4	61	mm	200.000000	477	1272
Frame#	Time	FHD			LBHD			RBHD			C7			T10			CLAV			LSHO			LUUPA			LMUPA			LDUPA			LLEP			LMEP			LRAD			LUL			LRFIN			RSHO			RUPA1			RMUPA			RDUPA			RLEP			RMEP			RRAD			RUL			RUFIN			LASI			RASI			USACR			LSACR			RSACR			LTHI1			LTHI2			LTHI3			LTHI4			LLFC			LMFC			LTIB1			LTIB2			LTIB3			LTIB4			LLMAL			LMMAL			LHEE			LMT1			LMT2			LMT5			RTHI			RTHI2			RTHI3			RTHI4			RLFC			RMFC			RTIB1			RTIB2			RTIB3			RTIB4			RLMAL			RMMAL			RHEE			RMT1			RMT2			RMT5			
		X1	Y1	Z1	X2	Y2	Z2	X3	Y3	Z3	X4	Y4	Z4	X5	Y5	Z5	X6	Y6	Z6	X7	Y7	Z7	X8	Y8	Z8	X9	Y9	Z9	X10	Y10	Z10	X11	Y11	Z11	X12	Y12	Z12	X13	Y13	Z13	X14	Y14	Z14	X15	Y15	Z15	X16	Y16	Z16	X17	Y17	Z17	X18	Y18	Z18	X19	Y19	Z19	X20	Y20	Z20	X21	Y21	Z21	X22	Y22	Z22	X23	Y23	Z23	X24	Y24	Z24	X25	Y25	Z25	X26	Y26	Z26	X27	Y27	Z27	X28	Y28	Z28	X29	Y29	Z29	X30	Y30	Z30	X31	Y31	Z31	X32	Y32	Z32	X33	Y33	Z33	X34	Y34	Z34	X35	Y35	Z35	X36	Y36	Z36	X37	Y37	Z37	X38	Y38	Z38	X39	Y39	Z39	X40	Y40	Z40	X41	Y41	Z41	X42	Y42	Z42	X43	Y43	Z43	X44	Y44	Z44	X45	Y45	Z45	X46	Y46	Z46	X47	Y47	Z47	X48	Y48	Z48	X49	Y49	Z49	X50	Y50	Z50	X51	Y51	Z51	X52	Y52	Z52	X53	Y53	Z53	X54	Y54	Z54	X55	Y55	Z55	X56	Y56	Z56	X57	Y57	Z57	X58	Y58	Z58	X59	Y59	Z59	X60	Y60	Z60	X61	Y61	Z61	

478	2.385	110.3622589111328	1044.69873046875	-816.3115234375002	-54.16123962402345	1014.925231933594	-883.4821777343752	116.0785903930664	1054.74609375	-958.5974731445315	-97.54218292236331	953.9324340820315	-910.3548583984377	-356.8446655273438	810.4382324218752	-899.645935058594	-18.33064651489258	799.2723388671877	-886.5206298828127	20.55745124816895	829.5114746093752	-1050.796997070313	-121.7847900390625	849.9673461914065	-1232.422485351563	-143.4832763671875	803.8791503906252	-1235.353271484375	-176.7680358886719	835.8452148437502	-1273.36328125	-258.8812255859376	821.8140258789065	-1310.386596679688	-295.8231506347657	878.4819946289065	-1270.882690429688	-416.5530090332032	722.4390869140626	-1103.897094726563	-434.1170349121095	659.2970581054689	-1151.661376953125	-365.4058837890626	682.7739257812501	-1078.221557617188	0.9825977683067324	859.193054199219	-721.6328735351564	-163.171142578125	912.2161865234377	-576.5603027343751	-185.3993682861328	867.3950805664065	-570.9229736328126	-223.218734741211	900.1324462890627	-540.5300292968751	-292.6480407714844	904.2937011718752	-510.7051086425782	-340.9027709960938	941.924743652344	-578.8730468750001	-402.547332763672	726.7531127929689	-689.0961914062501	-401.6878662109376	674.7937622070314	-626.8029785156251	-355.3695678710938	672.2742919921876	-717.8705444335939	-395.7349853515626	553.3604736328126	-1015.637268066406	-397.0757446289064	550.7491455078126	-783.004089355469	-484.8737182617189	733.7917480468751	-894.1887207031252	-513.0990600585939	716.2319946289064	-922.3142089843752	-514.2267456054689	714.7936401367189	-865.8572387695315	-313.4400024414063	537.4659423828126	-1136.96728515625	-228.2953643798829	537.1005859375001	-1149.766235351563	-205.3490753173829	569.6364135742189	-1120.423583984375	-192.0127258300782	487.9776000976564	-1160.62548828125	-116.824203491211	447.1151428222657	-1164.30322265625	-87.57080078125001	431.9136657714845	-1040.355590820313	-97.71006774902347	312.6191711425782	-1129.43017578125	-167.5929260253907	312.6237182617188	-1181.695922851563	-136.0106811523438	287.9770812988282	-1160.185791015625	-184.5921783447266	223.0787963867188	-1131.880737304688	-337.4026184082032	90.12577056884767	-1141.193481445313	-302.5440979003907	91.95787048339845	-1054.64990234375	-405.4440307617189	51.5496063232422	-1086.545043945313	-179.3010864257813	61.70835494995119	-1107.558349609375	-184.2240142822266	59.87093353271486	-1155.090209960938	-240.2011413574219	37.38704681396485	-1202.29296875	-418.8782958984376	522.1312255859376	-668.2210693359376	-356.0874328613282	541.8886108398439	-655.6539916992189	-342.1329650878907	571.2672729492189	-662.5474243164064	-291.6263122558594	491.721160888672	-641.4581298828126	-152.6740875244141	443.7483825683595	-618.0723876953126	-93.65948486328126	436.8820190429689	-743.3538818359376	-153.8137512207032	270.1494750976563	-698.9904785156251	-232.7106475830079	221.7690887451172	-637.9057617187501	-201.3729553222657	201.4719848632813	-665.4743652343751	-226.091537475586	164.5248413085938	-702.4137573242189	-331.6684265136719	94.69063568115236	-667.3746337890626	-283.7565612792969	96.63090515136722	-749.0164794921876	-393.5315856933595	52.90449523925783	-735.2611083984376	-182.0995025634766	53.14854049682619	-675.8280029296876	-195.8720397949219	61.56910705566408	-625.9843139648439	-252.9989166259766	30.00247192382813	-585.9131469726564	
479	2.39	110.2096328735352	1044.856811523438	-816.3614501953127	-54.4342498779297	1014.434143066406	-883.4150390625002	115.9201354980469	1054.811645507813	-958.6958007812502	-97.82559967041018	953.9964599609377	-910.3587036132815	-356.9654846191407	810.4822387695315	-899.580505371094	-18.34812355041504	799.308044433594	-886.544372558594	20.53077507019043	829.5823364257815	-1050.8388671875	-121.8570556640625	850.0311279296877	-1232.350708007813	-143.6397247314453	803.896911621094	-1235.346557617188	-176.9303283691407	835.8708496093752	-1273.342041015625	-259.0907592773438	821.836608886719	-1310.355102539063	-295.9560852050782	878.5145263671877	-1270.86279296875	-416.6157836914064	722.5178833007814	-1103.833251953125	-434.3109436035157	659.3898925781251	-1151.558715820313	-365.4451293945313	682.8803710937501	-1078.217163085938	0.9350342154502871	859.2327880859377	-721.6759033203126	-163.1448516845703	912.3162231445315	-576.6291503906251	-185.4952392578125	867.509216308594	-570.9063720703126	-223.2553405761719	900.2194824218752	-540.5337524414064	-292.6675720214844	904.3501586914065	-510.6755981445314	-340.9723510742188	941.9780273437502	-578.8436279296876	-402.6505126953126	726.8855590820314	-689.0679321289064	-401.7330322265626	674.8390502929689	-626.7366333007814	-355.4233398437501	672.3529052734376	-717.8963623046876	-395.531219482422	552.9867553710939	-1014.74267578125	-397.9538879394532	550.8505249023439	-782.115905761719	-484.9515075683595	733.8340454101564	-894.1477050781252	-513.1387939453126	716.2014160156251	-922.2930297851565	-514.6043701171876	714.8264770507814	-865.7302246093752	-313.5456848144532	537.5307006835939	-1136.881469726563	-228.3622436523438	537.2198486328126	-1149.673583984375	-205.4201660156251	569.6752319335939	-1120.361938476563	-192.1765289306641	487.9932250976564	-1160.571166992188	-116.8876342773438	447.2268371582032	-1164.227905273438	-87.55099487304689	431.9192199707032	-1040.296997070313	-97.88198089599612	312.6736145019532	-1129.296142578125	-167.5914916992188	312.6456909179688	-1181.667602539063	-136.12158203125	287.9699401855469	-1160.11083984375	-184.6237182617188	223.1266174316407	-1131.855102539063	-337.3918762207032	90.11716461181642	-1141.207641601563	-302.5544128417969	91.97750091552736	-1054.664184570313	-405.4993591308595	51.57073974609376	-1086.489990234375	-179.3034210205078	61.68676376342775	-1107.572021484375	-184.3130798339844	59.77506637573244	-1155.034423828125	-240.2223663330079	37.3923683166504	-1202.2646484375	-418.8867492675782	522.1408691406251	-668.2020874023439	-356.0747070312501	541.8983154296876	-655.6577148437501	-342.1498718261719	571.2868041992189	-662.5654296875001	-291.6473693847657	491.6795043945314	-641.4602050781251	-152.7109985351563	443.7827758789064	-618.0987548828126	-93.74501037597658	436.8919372558595	-743.4226684570314	-153.85107421875	270.2174682617188	-699.0760498046876	-232.7008819580079	221.8281707763672	-637.9591064453126	-201.3712615966797	201.4847869873047	-665.4682617187501	-226.1237792968751	164.5653839111328	-702.4448242187501	-331.6219482421876	94.72567749023439	-667.3359375000001	-283.7198181152344	96.65383148193362	-749.0147094726564	-393.5232238769532	52.89390945434572	-735.2731323242189	-182.095947265625	53.14938735961915	-675.8339233398439	-195.8238220214844	61.59191513061525	-626.0028686523439	-252.9925842285157	30.01356506347657	-585.9356079101564	
480	2.395	110.0502014160157	1045.01318359375	-816.4301757812502	-54.65244293212892	1014.508605957031	-883.3978271484377	115.6810607910157	1054.884765625	-958.759216308594	-97.9633483886719	954.028747558594	-910.389343261719	-357.0422668457032	810.511657714844	-899.5447387695315	-18.41487121582032	799.1312255859377	-886.6580200195315	20.36862373352051	829.7246093750002	-1050.805541992188	-122.0420074462891	850.126159667969	-1232.33154296875	-143.792709350586	803.9136962890627	-1235.362060546875	-177.1555480957032	835.8709716796877	-1273.300659179688	-259.1821289062501	821.8168945312502	-1310.380981445313	-295.9576416015626	878.582214355469	-1270.91650390625	-416.6810913085939	722.5479125976564	-1103.769409179688	-434.5082092285157	659.4767456054689	-1151.495239257813	-365.4896545410157	683.0019531250001	-1078.213134765625	0.8956618309020998	859.300964355469	-721.6955566406251	-163.0928802490235	912.4680786132815	-576.6763916015626	-185.4801025390625	867.591247558594	-570.9175415039064	-223.2098999023438	900.2751464843752	-540.5546875000001	-292.7159729003907	904.5056762695315	-510.6865234375001	-341.0101928710938	942.048522949219	-578.7793579101564	-402.832000732422	726.8670043945314	-689.0255737304689	-401.7646484375001	674.8846435546876	-626.6780395507814	-355.4772033691407	672.3789062500001	-717.8881835937501	-395.2369995117189	553.0327148437501	-1014.461181640625	-398.035614013672	551.0064697265626	-781.8404541015627	-485.0589904785157	733.8497924804689	-894.1070556640627	-513.1097412109376	716.2254028320314	-922.260437011719	-514.6759033203126	714.8653564453126	-865.691345214844	-313.7868957519532	537.5386352539064	-1136.8583984375	-228.6177978515626	537.2169799804689	-1149.642456054688	-205.6211547851563	569.8357543945314	-1120.35498046875	-192.3236694335938	488.1467285156251	-1160.475341796875	-117.0685272216797	447.2955322265626	-1164.181518554688	-87.56397247314455	431.9306945800782	-1040.1494140625	-97.94250488281253	312.7745361328126	-1129.251831054688	-167.6694641113282	312.6748046875001	-1181.647827148438	-136.0063018798828	288.0784301757813	-1160.096435546875	-184.712631225586	223.0795440673829	-1131.821655273438	-337.4068603515626	90.11243438720705	-1141.23583984375	-302.5594177246094	91.97666168212892	-1054.639404296875	-405.2975463867189	51.46499633789064	-1086.560668945313	-179.8204040527344	61.7748489379883	-1107.505981445313	-184.3548889160157	59.81823730468751	-1155.043579101563	-240.229232788086	37.43508529663087	-1202.238037109375	-418.9198303222657	522.1054077148439	-668.1412963867189	-356.2409667968751	541.8798217773439	-655.6370239257814	-342.1772155761719	571.2764282226564	-662.5716552734376	-291.6573791503907	491.6811828613282	-641.4850463867189	-152.7298736572266	443.8912048339845	-618.1500244140626	-93.80055236816408	437.0026245117189	-743.4767456054689	-153.8744659423828	270.1976623535157	-699.0933227539064	-232.7071838378907	221.8003692626954	-637.9730834960939	-201.374984741211	201.4732666015626	-665.5067138671876	-226.1844940185547	164.5467529296875	-702.4630126953126	-331.6936035156251	94.70877838134767	-667.3804931640626	-283.7546997070313	96.65516662597659	-749.0033569335939	-393.547088623047	52.85633468627931	-735.2529296875001	-182.1264343261719	53.11350631713869	-675.8919067382814	-195.8279266357422	61.58701324462892	-626.0056762695314	-253.0003356933594	30.01944160461426	-585.9265747070314	
481	2.4	109.8804779052735	1045.1611328125	-816.5068359375002	-54.7517547607422	1014.574157714844	-883.407897949219	115.4789505004883	1054.88818359375	-958.876892089844	-97.96306610107425	954.099548339844	-910.3807373046877	-357.1269226074219	810.575134277344	-899.5632934570315	-18.69395828247071	799.5552368164065	-886.6067504882815	20.14287948608399	829.682312011719	-1050.809692382813	-122.1954803466797	850.1586914062502	-1232.335571289063	-143.8260345458985	803.969909667969	-1235.364013671875	-177.2030181884766	835.925720214844	-1273.278198242188	-259.3692932128907	821.942810058594	-1310.34326171875	-296.0953979492188	878.648376464844	-1270.922241210938	-416.7479248046876	722.6153564453126	-1103.731201171875	-434.594940185547	659.5578002929689	-1151.481079101563	-365.5124816894532	683.0285034179689	-1078.20068359375	0.8363530635833742	859.3487548828127	-721.6278076171876	-163.1448516845703	912.5467529296877	-576.6893310546876	-185.5723266601563	867.6782226562502	-570.9252929687501	-223.2051544189454	900.4071044921877	-540.4942626953126	-292.9140930175782	904.4938964843752	-510.6083984375001	-341.1918640136719	942.1594238281252	-578.7451171875001	-402.8516845703126	726.9709472656251	-688.9551391601564	-401.8615112304689	674.9725341796876	-626.5923461914064	-355.5275268554688	672.4195556640626	-717.9595947265626	-394.7783203125001	553.3857421875001	-1014.425354003906	-397.5736083984376	551.4042358398439	-781.8067626953127	-485.1573486328126	733.9757080078126	-894.0769042968752	-513.1912841796876	716.2305297851564	-922.2482910156252	-514.7187500000001	714.8964233398439	-865.7038574218752	-313.8689880371094	537.6364135742189	-1136.805908203125	-228.7866821289063	537.3263549804689	-1149.521118164063	-205.7893829345704	569.8890991210939	-1120.301147460938	-192.4488220214844	488.2090148925782	-1160.407470703125	-117.1116027832032	447.4095153808595	-1164.1162109375	-87.58541107177736	432.0019531250001	-1040.066040039063	-98.01386260986331	313.0118408203126	-1129.218994140625	-167.7786865234375	312.7627258300782	-1181.527099609375	-136.1339721679688	288.1309814453126	-1160.03076171875	-184.67138671875	223.2578430175782	-1131.748291015625	-337.4281921386719	90.09236907958986	-1141.253784179688	-302.5658874511719	91.9691619873047	-1054.64306640625	-405.498016357422	51.60049438476564	-1086.516479492188	-179.3312377929688	61.68801116943361	-1107.564208984375	-184.3802642822266	59.81442260742189	-1155.050048828125	-240.2461547851563	37.38417053222657	-1202.23681640625	-418.9299926757814	522.1202392578126	-668.0775756835939	-356.2856750488282	541.8607788085939	-655.6021118164064	-342.1750488281251	571.2681884765626	-662.5679931640626	-291.7390136718751	491.6563110351564	-641.4851074218751	-152.7455749511719	443.8758850097657	-618.1990356445314	-93.81075286865236	436.9927978515626	-743.5568237304689	-153.8657836914063	270.1917724609376	-699.1253051757814	-232.6887969970704	221.8330993652344	-638.0245971679689	-201.3565673828126	201.5534362792969	-665.5457153320314	-226.1990661621094	164.5890045166016	-702.4896240234376	-331.6867370605469	94.69188690185548	-667.3767089843751	-283.7367248535157	96.63787841796878	-749.0194702148439	-393.5573120117189	52.87107086181642	-735.2338256835939	-182.1014099121094	53.17675781250001	-675.8660888671876	-195.8143310546876	61.58671951293947	-625.9931640625001	-252.9753112792969	30.02648925781251	-585.9498901367189	
